<svg width="77" height="22" viewBox="0 0 77 22" fill="none" xmlns="http://www.w3.org/2000/svg">
<g opacity="0.5">
<path opacity="0.5" d="M42.6782 2.26473L37.8178 12.765H37.3253V0.00153331H30.3818V21.4682H36.14C37.7015 21.4682 39.0918 20.5681 39.7555 19.1759L44.6466 8.7032H45.1375V21.4682H52.0826V0.00153331H46.2372C44.7338 0.00153331 43.316 0.900067 42.6782 2.26473ZM16.8694 2.8152L14.0048 12.7665H13.5124L10.6187 2.8152C10.3804 2.00081 9.88463 1.28608 9.20608 0.77862C8.52752 0.271162 7.70289 -0.00155385 6.85635 0.00153331H0V21.4682H6.94353V8.70473H7.436L11.4293 21.4682H16.0588L20.0506 8.70473H20.5431V21.4682H27.4881V0.00153331H20.6302C18.8944 0.00153331 17.3313 1.13313 16.8679 2.8152H16.8694ZM54.9762 9.57413V21.4682H61.9198V14.5069H69.3864C70.9189 14.5113 72.4151 14.0393 73.669 13.1559C74.9229 12.2726 75.8728 11.0212 76.388 9.57413H54.9762ZM69.1829 0H53.7313C54.6872 5.106 59.1423 8.70473 64.4953 8.70473H76.5042C76.5979 8.20724 76.646 7.70221 76.648 7.19593C76.648 3.04673 73.3215 0.00153331 69.1845 0.00153331L69.1829 0Z" fill="white"/>
</g>
</svg>
